<?xml version="1.0" encoding="utf-8"?>
<!-- Generator: Adobe Illustrator 19.0.0, SVG Export Plug-In . SVG Version: 6.00 Build 0)  -->
<svg version="1.1" id="Layer_1" xmlns="http://www.w3.org/2000/svg" xmlns:xlink="http://www.w3.org/1999/xlink" x="0px" y="0px"
	 viewBox="0 0 200 200" style="enable-background:new 0 0 200 200;" xml:space="preserve">
<style type="text/css">
	.st0{fill:#27AAE1;}
	.st1{opacity:0.1091;}
	.st2{fill:#EBE6E5;}
	.st3{font-family:'BrushScriptMT';}
	.st4{font-size:74.7963px;}
</style>
<g id="XMLID_1_">
	<ellipse id="XMLID_38_" class="st0" cx="101.3" cy="87.2" rx="73" ry="63.8"/>
	<g id="XMLID_24_">
		<g id="XMLID_25_">
			<path id="XMLID_37_" class="st1" d="M155,104.3c0.1,2.6-0.2,5.1-0.9,7.5c-0.4,2.4-1.2,4.6-2.4,6.8c0.4-0.7,0.8-1.4,1.2-2.1
				c-1.2,2-2.4,4.1-3.6,6.1c0.4-0.7,0.8-1.4,1.2-2c-1.6,2.6-3.6,5-5.8,7.2c-2.2,2.2-4.6,4.2-7.2,5.9c-5.3,3.6-11.3,6.3-17.5,8.1
				c-13,3.8-26.7,3.7-39.8,0.4c-13-3.2-25.1-9.9-34.1-19.9c-4.4-4.9-8-10.5-10.5-16.6c-2.5-6.1-3.4-12.2-3.7-18.7
				c-0.1,1.2-0.1,2.5-0.2,3.7c0.1-2.8,0.3-5.7,0.4-8.5c-0.2,1.2-0.3,2.4-0.5,3.7c0.4-2.8,0.8-5.6,1.2-8.4c-0.3,1.2-0.5,2.4-0.8,3.6
				c0.7-2.8,1.4-5.6,2-8.4c-0.4,1.2-0.7,2.3-1.1,3.5c0.9-2.7,1.9-5.4,2.8-8.1c-0.5,1.1-0.9,2.2-1.4,3.3c1.2-2.6,2.4-5.1,3.6-7.7
				C37.5,65,37,66,36.4,67.1c1.4-2.4,2.8-4.8,4.2-7.2c-0.6,1-1.3,2-1.9,3c1.6-2.3,3.3-4.5,4.9-6.8c-0.7,0.9-1.5,1.9-2.2,2.8
				c1.8-2.1,3.6-4.2,5.5-6.3c-0.8,0.9-1.6,1.7-2.4,2.6c2-1.9,4-3.9,6-5.8c-0.9,0.8-1.8,1.6-2.6,2.4c2.2-1.8,4.3-3.5,6.5-5.3
				c-0.9,0.7-1.9,1.4-2.8,2.2c2.3-1.6,4.7-3.2,7-4.8c-1,0.6-2,1.3-3,1.9c2.4-1.4,4.9-2.8,7.3-4.3c-1.1,0.6-2.1,1.1-3.2,1.7
				c2.6-1.2,5.2-2.5,7.7-3.7c-1.1,0.5-2.2,0.9-3.3,1.4c2.7-1.1,5.3-2.1,8-3.2c-1.1,0.4-2.3,0.8-3.4,1.1c2.8-0.9,5.6-1.7,8.3-2.6
				c-1.2,0.3-2.4,0.6-3.5,0.9c2.8-0.7,5.7-1.3,8.5-2c-1.2,0.2-2.4,0.4-3.6,0.6c8.3-1.3,16.4-2.5,24.8-1.7c5.6,0.5,11.2,1.5,16.6,3.1
				c5.2,1.6,10.3,3.8,15,6.4c6.1,3.5,11.1,7.9,16,12.9c-0.9-1.1-1.8-2.1-2.6-3.2c1.9,2.3,3.9,4.7,5.8,7c-0.8-1.1-1.6-2.3-2.4-3.4
				c1.7,2.5,3.5,4.9,5.2,7.4c-0.7-1.2-1.4-2.4-2.2-3.6c1.5,2.6,3,5.2,4.6,7.8c-0.6-1.3-1.3-2.5-1.9-3.8c1.3,2.7,2.6,5.4,3.9,8.1
				c-0.5-1.3-1.1-2.6-1.6-4c1.1,2.8,2.1,5.6,3.2,8.5c-0.4-1.4-0.9-2.7-1.3-4.1c0.8,2.9,1.6,5.8,2.4,8.7c-0.3-1.4-0.6-2.8-0.9-4.2
				c0.5,3,1.1,5.9,1.6,8.9c-0.2-1.4-0.4-2.9-0.6-4.3c0.3,3,0.5,6,0.8,9c-0.1-1.5-0.1-2.9-0.2-4.4c0,3,0,6.1-0.1,9.1
				c0.1-1.5,0.1-3,0.2-4.4c-0.3,3-0.6,6.1-0.9,9.1c0.2-1.5,0.4-2.9,0.6-4.4c-0.6,3-1.2,6.1-1.8,9.1c0,0.8,0,1.5,0,2.3
				c0.3,0.3,0.5,0.7,0.8,1c0.4-0.1,0.8-0.2,1.2-0.4c1.1-1.1,1.8-2.4,2.2-3.9c1.5-3.6,2.7-7.4,3.8-11.1c0.6-1.7,1.1-3.5,1.4-5.2
				c0.5-1.4,0.7-2.9,0.5-4.5c-0.9-5.4-2-10.6-4.2-15.6c-1.8-4.1-3.9-7.9-6.4-11.5c-5.6-7.9-13-14.8-21.4-19.7
				c-13.4-7.8-29-11.6-44.5-11.1c-12.1,0.3-23.8,3-34.6,8.3C43.5,42.9,28.8,59,25,79.2c-2.4,13-0.4,25.8,5.4,37.7
				c4.6,9.5,12.1,17.8,20.7,24c9.4,6.9,20.1,11.3,31.6,13.4c10.9,1.9,21.8,2,32.8,0.2c6.3-1,12.3-3.1,18.1-5.7
				c5.4-2.4,11-5.9,15.5-9.7c7.6-6.2,13.6-13.6,18.2-22.3c1.3-2.5,2.4-5,3.3-7.6c0.9-2.5,1.8-5.1,2.7-7.6c0.4-1.7,0.8-3.5,1.2-5.2
				c0.8-3.3,1.2-6.6,1.2-10c0.3-4.8-7.3,2.9-7.1,2.7c-3.2,3.1-6.3,6.3-9.3,9.6C157.2,100.2,155.9,102.1,155,104.3z"/>
			<path id="XMLID_36_" class="st1" d="M156.7,96.6c0,3.4-0.5,6.6-1.5,9.8c0.1-0.5,0.3-1.1,0.4-1.6c-0.7,2.3-1.6,4.4-2.9,6.4
				c-1.1,2-2.3,4-3.8,5.7c0.7-0.8,1.5-1.6,2.2-2.4c-1.8,1.9-3.6,3.9-5.3,5.8c0.8-0.8,1.6-1.5,2.4-2.3c-1.9,1.8-3.9,3.5-5.8,5.3
				c0.9-0.7,1.7-1.4,2.6-2.1c-2.1,1.6-4.3,3.2-6.4,4.8c0.9-0.7,1.9-1.3,2.8-2c-2.3,1.5-4.5,2.9-6.8,4.4c1-0.6,2-1.2,3-1.8
				c-2.4,1.3-4.8,2.6-7.3,3.8c1-0.5,2.1-1.1,3.1-1.6c-2.5,1.1-5.1,2.2-7.6,3.4c1.1-0.5,2.2-0.9,3.3-1.4c-2.7,0.9-5.3,1.9-8,2.8
				c1.2-0.4,2.3-0.8,3.5-1.1c-2.8,0.8-5.5,1.5-8.3,2.3c1.2-0.3,2.4-0.6,3.6-0.9c-2.9,0.6-5.8,1.1-8.6,1.7c1.2-0.2,2.5-0.4,3.7-0.6
				c-3,0.4-5.9,0.7-8.9,1.1c1.3-0.1,2.5-0.2,3.8-0.3c-3,0.1-6.1,0.3-9.1,0.4c1.3,0,2.6,0,3.9,0c-3-0.1-6.1-0.2-9.1-0.2
				c1.3,0.1,2.6,0.2,4,0.3c-3.1-0.3-6.3-0.6-9.4-0.9c1.3,0.2,2.7,0.4,4,0.6c-3.2-0.5-6.3-1.1-9.5-1.6c1.3,0.3,2.7,0.6,4,0.9
				c-3.1-0.8-6.3-1.5-9.4-2.3c1.3,0.4,2.6,0.8,4,1.2c-3.1-1-6.1-2-9.2-3c1.3,0.5,2.6,1,3.9,1.5c-3-1.2-5.9-2.5-8.9-3.7
				c1.3,0.6,2.5,1.3,3.8,1.9c-2.9-1.5-5.7-2.9-8.6-4.4c1.2,0.7,2.4,1.5,3.7,2.2c-2.7-1.7-5.4-3.4-8.1-5.1c1.2,0.8,2.3,1.7,3.5,2.5
				c-2.5-1.9-5.1-3.8-7.6-5.6c1.1,0.9,2.2,1.9,3.3,2.8c-2.4-2.1-4.7-4.2-7.1-6.2c1,1,2.1,2.1,3.1,3.1c-2.2-2.2-4.4-4.5-6.6-6.7
				c0.9,1.1,1.9,2.3,2.8,3.4c-2-2.4-4-4.8-6-7.3c0.9,1.2,1.7,2.4,2.6,3.7c-1.8-2.6-3.5-5.1-5.3-7.7c0.8,1.3,1.5,2.6,2.3,3.9
				c-1.5-2.7-3.1-5.4-4.6-8.1c0.6,1.4,1.3,2.7,1.9,4.1c-1.3-2.8-2.6-5.6-3.9-8.4c0.5,1.4,1,2.8,1.6,4.2c-1-2.9-2.1-5.8-3.1-8.7
				c0.4,1.5,0.8,2.9,1.2,4.4c-0.8-3-1.5-5.9-2.3-8.9c0.3,1.5,0.5,3,0.8,4.4c-0.5-3-1-6.1-1.4-9.1c0.1,1.5,0.2,3,0.4,4.5
				c-0.2-3.1-0.4-6.1-0.6-9.2c0,1.5,0,3-0.1,4.5c0.1-3.1,0.2-6.1,0.3-9.2c-0.2,1.5-0.3,3-0.5,4.5c0.4-3,0.8-6.1,1.2-9.1
				c-0.3,1.4-0.6,2.9-0.9,4.3c0.7-3,1.4-6,2.1-9c-0.5,1.4-0.9,2.8-1.4,4.2c1-2.9,2-5.8,3-8.7c-0.6,1.3-1.2,2.6-1.8,4
				c1.3-2.8,2.6-5.5,3.9-8.3c-0.7,1.2-1.4,2.5-2.1,3.7c1.6-2.6,3.1-5.2,4.7-7.7c-0.8,1.1-1.6,2.3-2.5,3.4c1.8-2.4,3.6-4.8,5.3-7.2
				c-0.9,1-1.9,2.1-2.8,3.1c2.9-3.6,6.1-6.9,9.5-9.9c2.5-2.1,5.1-4,7.9-5.7c4.3-2.6,8.9-4.7,13.7-6.3c11.1-3.8,23-4.9,34.6-3.3
				c12.1,1.6,23.9,5.6,33.8,12.7c4.2,3,8,6.6,11.4,10.5c4.4,5.1,7.4,10.8,10,17c-0.3-0.9-0.6-1.8-0.9-2.7c0.8,2.4,1.6,4.9,2.4,7.3
				c-0.2-0.9-0.5-1.8-0.7-2.7c0.6,2.5,1.1,4.9,1.7,7.4c-0.2-0.9-0.3-1.9-0.5-2.8c0.3,2.5,0.7,5,1,7.5c-0.1-0.9-0.2-1.9-0.3-2.8
				c0.1,2.5,0.2,5,0.4,7.5c0-0.9-0.1-1.9-0.1-2.8c-0.1,2.5-0.2,5.1-0.4,7.6c0-1,0.1-1.9,0.1-2.9c-0.6,3.1-1.2,6.3-1.8,9.4
				c-0.3,1.1-1.1,3.2-0.4,4.4c0.7,1.1,1.7,0.9,2.6,0.2c1.3-1.2,2-3.4,2.6-5c1-2.7,2.4-5.8,2.6-8.7c0.4-5.2,0.6-10.3-0.4-15.4
				c-0.8-4.3-2-8.4-3.7-12.4c-3.8-9.2-9.9-17.6-17.5-24c-3.7-3.2-7.7-6-11.9-8.4c-4.5-2.6-9.4-4.6-14.3-6.2
				c-6.4-2.2-13.2-3.4-19.9-4c-6.2-0.5-12.4-0.4-18.6,0.3c-9.1,1-18.1,4.1-26.2,8.2c-5.5,2.7-10.9,6.7-15.4,10.9
				c-1.5,1.5-3,2.9-4.4,4.4c-2,2.3-3.9,4.8-5.5,7.4C28.6,56.5,25,67.8,25,78.9c0,5.1,0.6,10,1.9,15c1.2,4.7,3,9.2,5.2,13.5
				c4.7,9,12.2,16.7,20.5,22.5c14.5,10.1,32.1,14.4,49.7,13.8c16.1-0.6,32.5-5.8,45.2-15.9c6.5-5.2,11.8-11.2,15.8-18.5
				c1.8-3.3,3.3-7.1,4.4-10.7c0.4-1.6,0.8-3.2,1.3-4.8c0.8-3.3,1.2-6.6,1.3-10c-0.1-1-0.6-1.4-1.6-1.4c-1.6,0.5-2.9,1.5-3.9,2.9
				c-2.1,2.2-4,4.5-5.8,6.9C157.7,93.5,157,94.9,156.7,96.6z"/>
			<path id="XMLID_35_" class="st1" d="M160.4,102.3c0.1,2.6-0.3,5.1-1,7.6c-0.4,2.4-1.2,4.7-2.4,6.8c0.4-0.6,0.7-1.3,1.1-1.9
				c-1.2,2-2.3,4-3.5,6c0.4-0.6,0.8-1.2,1.1-1.8c-1.3,1.9-2.6,3.7-3.9,5.6c0.4-0.6,0.8-1.2,1.2-1.8c-3.2,3.6-6.4,6.7-10.3,9.5
				c-4,2.8-8.4,4.9-12.9,6.6c-10.6,4.1-22.4,5.2-33.6,3.9c-11.1-1.2-21.7-4.6-31.2-10.4c-4.4-2.7-8.4-5.9-12.1-9.6
				c-4.1-4.2-7.3-8.8-10.2-13.9c0.6,1.3,1.2,2.5,1.8,3.8c-1.3-2.7-2.5-5.4-3.8-8.1c0.5,1.3,1,2.6,1.5,3.9c-1-2.8-2-5.6-3.1-8.5
				c0.4,1.4,0.8,2.7,1.2,4.1c-0.8-2.9-1.6-5.8-2.3-8.6c0.3,1.4,0.6,2.8,0.8,4.2c-0.5-3-1-5.9-1.5-8.9c0.2,1.4,0.3,2.8,0.5,4.3
				c-0.3-3-0.5-6-0.8-8.9c0,1.4,0.1,2.9,0.1,4.3c0-3,0.1-6,0.1-9.1c-0.1,1.4-0.2,2.9-0.2,4.3c0.3-3,0.6-6,0.9-9
				c-0.2,1.4-0.4,2.9-0.6,4.3c0.6-3,1.2-6,1.8-9c-0.3,1.4-0.7,2.8-1,4.3c0.9-2.9,1.8-5.9,2.6-8.8c-1.3,3.3-2.5,6.6-3.8,9.9
				c2-4.8,3.9-9.5,5.9-14.3c-1.6,3.2-3.1,6.4-4.7,9.6c2.4-4.5,4.8-9.1,7.2-13.6c-1.9,3-3.7,6.1-5.6,9.1c2.8-4.3,5.7-8.6,8.5-12.9
				c-2.2,2.9-4.3,5.8-6.5,8.7c3.2-4,6.5-8.1,9.7-12.1c-2.4,2.7-4.9,5.3-7.3,8c3.6-3.7,7.2-7.5,10.8-11.2c-1.1,1-2.2,2.1-3.2,3.1
				c2.3-2,4.7-4.1,7-6.1c-1.2,0.9-2.3,1.9-3.5,2.8c2.5-1.8,5.1-3.7,7.6-5.5c-1.3,0.8-2.5,1.7-3.8,2.5c2.7-1.6,5.4-3.3,8-4.9
				c-1.3,0.7-2.7,1.4-4,2.2c2.8-1.4,5.7-2.9,8.5-4.3c-1.4,0.6-2.8,1.2-4.2,1.8c3-1.2,5.9-2.4,8.9-3.6c-1.5,0.5-2.9,0.9-4.4,1.4
				c6.5-2.1,12.7-4.1,19.4-5.1c5.3-0.8,10.7-0.9,16.1-0.5c12,0.8,23.8,4.4,34.1,10.6c8.7,5.2,16.1,12.5,21.3,21.3
				c2.4,4.2,4.3,8.5,5.5,13.2c1.4,5.5,1.7,10.8,1.4,16.5c0.2-1.4,0.4-2.9,0.6-4.3c-0.4,3-0.8,6-1.3,9c0.3-1.4,0.6-2.8,0.9-4.2
				c-0.7,3-1.4,6-2.1,9c0,0.7-0.1,1.5-0.1,2.2c0.2,0.3,0.5,0.7,0.7,1c0.4-0.1,0.8-0.1,1.2-0.2c1.1-1,2-2.1,2.5-3.5
				c1.7-3.3,3.2-6.8,4.6-10.3c0.7-1.6,1.3-3.2,1.8-4.9c0.6-1.3,0.9-2.7,0.8-4.2c-0.6-4.9-1.2-9.6-2.7-14.3c-1.5-4.6-3.3-9-5.9-13.1
				c-4.6-7.5-10.5-14-17.5-19.3c-15.9-12.2-36.5-17-56.4-15.5c-5.3,0.4-10.6,1.3-15.8,2.6c-4,1-7.8,2.5-11.6,4.2
				c-9,4.1-17.2,9.9-23.8,17.3C34.1,58.3,27.3,75.7,29.4,93.1c1,8,3.3,15.7,7.3,22.8c3.9,7.1,9.1,13.2,15.2,18.5
				c14.1,12.3,33.2,18.1,51.7,18.3c10.3,0.1,20.4-1.4,30-5c8.2-3,16-7.5,22.7-13.2c7-6,13.1-13.7,16.9-22.1c1.5-3.3,2.8-6.7,4-10.1
				c1.7-5,2.3-10,2.8-15.2c0.4-4.5-6.7,1.9-6.8,1.9c-3.1,2.6-6,5.4-8.9,8.2C162.5,98.6,161.2,100.3,160.4,102.3z"/>
			<path id="XMLID_34_" class="st1" d="M162,112c0,3.3-0.4,6.5-1.4,9.7c0.1-0.4,0.2-0.7,0.3-1.1c-1.7,3.7-3.4,7.2-6.1,10.3
				c-1,1.3-2.1,2.4-3.3,3.5c-1.7,1.7-3.6,3.2-5.7,4.5c0.4-0.2,0.8-0.5,1.2-0.7c-1.8,1.1-3.6,2.2-5.5,3.3c0.4-0.2,0.8-0.4,1.2-0.6
				c-1.9,0.9-3.8,1.8-5.8,2.7c0.4-0.2,0.8-0.4,1.2-0.5c-5.8,2.2-11.4,3.9-17.6,4.7c-5.2,0.7-10.4,0.8-15.7,0.4
				c-6.4-0.5-12.7-1.4-18.8-3.5c-13-4.4-23.9-11-32.7-23.2c-2.8-3.9-5.3-8.2-7-12.7c-4.4-11.6-4.2-21.8-0.5-32.4
				c1.4-3.9,3.4-7.5,5.8-10.9c7.5-10.8,20.6-17.6,32.1-22.6c-2.1,0.8-4.1,1.6-6.2,2.4c10.9-4.5,22-6.5,33.2-5.8
				c3.6,0.1,7.2,0.4,10.8,1.1c-1-0.1-1.9-0.2-2.9-0.4c2.8,0.5,5.5,1.1,8.3,1.6c-0.9-0.2-1.9-0.4-2.8-0.6c2.7,0.7,5.5,1.5,8.2,2.2
				c-0.9-0.3-1.9-0.6-2.8-0.9c2.6,1,5.3,1.9,7.9,2.9c-0.9-0.4-1.8-0.8-2.7-1.2c2.5,1.2,5.1,2.3,7.6,3.5c-0.9-0.5-1.8-0.9-2.6-1.4
				c2.4,1.4,4.8,2.7,7.3,4.1c-0.8-0.6-1.6-1.1-2.5-1.7c3.8,2.3,7.4,4.9,10.8,7.8c2.5,2.2,4.9,4.6,7,7.2c3.6,4.4,6.6,9.4,8.7,14.7
				c2.1,5.3,3.4,10.8,3.6,16.5c0.1,3.3-0.1,6.5-0.6,9.7c-0.6,3.3-1.5,6.5-2.7,9.7c-0.6,2,1.6,2.8,3,2c1.2-1.2,2.3-2.5,3.2-3.9
				c1-1.4,1.8-2.9,2.4-4.5c0.9-4,1.4-8.1,1.6-12.2c-0.1-2-0.2-4-0.3-6c-0.5-5.8-2.1-11.9-4.4-17.2c-2.3-5.3-5.7-10.3-9.4-14.7
				c-3.7-4.3-8.3-8.5-13.1-11.6c-18.7-12.2-42.5-15.7-64-9.8C79,39.4,67.7,44.1,58.1,51.6C49,58.8,42.1,69.5,39.8,81
				c-2.8,14.3,0.5,28.6,8.6,40.8c7.8,11.8,19.4,20.8,32.5,26c10.7,4.3,22.6,5.9,34.1,5.4c9.5-0.4,18.9-2.5,27.6-6.4
				c7.2-3.3,14-7.7,19.1-13.8c2.9-3.5,5.3-7.2,7.2-11.4c0.6-1.1,1.1-2.3,1.4-3.5c1-3.2,1.6-6.4,1.8-9.7c-0.1-0.8-0.4-1.4-1.1-1.8
				c-1-0.3-1.9-0.1-2.8,0.5c-1.5,0.8-2.9,1.7-4.3,2.8C162.7,110.2,162.2,111,162,112z"/>
			<path id="XMLID_33_" class="st1" d="M163.6,105.2c0.1,3.2-0.3,6.4-1.2,9.5c0.1-0.4,0.2-0.8,0.4-1.2c-0.6,1.5-1.3,3-1.9,4.4
				c-1,2.1-2.3,4.1-3.9,5.9c-2.5,3.2-5.3,5.6-8.5,8.1c0.6-0.4,1.1-0.7,1.7-1.1c-1.9,1.2-3.8,2.5-5.7,3.7c0.6-0.3,1.2-0.6,1.7-1
				c-2,1.1-4,2.1-6,3.2c0.6-0.3,1.2-0.6,1.8-0.8c-2.1,0.9-4.2,1.8-6.3,2.7c0.6-0.2,1.2-0.5,1.8-0.7c-2.2,0.7-4.3,1.5-6.5,2.2
				c0.6-0.2,1.2-0.4,1.8-0.6c-2.2,0.6-4.5,1.2-6.7,1.8c0.6-0.2,1.2-0.3,1.8-0.5c-2.3,0.4-4.5,0.9-6.8,1.3c0.6-0.1,1.2-0.2,1.8-0.3
				c-2.3,0.3-4.7,0.6-7,0.8c0.6-0.1,1.2-0.1,1.9-0.2c-2.4,0.1-4.7,0.2-7.1,0.4c0.6,0,1.2-0.1,1.9-0.1c-4.1,0-8.3-0.2-12.4-0.6
				c0.6,0.1,1.3,0.1,1.9,0.2c-2.4-0.4-4.9-0.7-7.3-1.1c0.6,0.1,1.3,0.2,1.9,0.3c-2.4-0.5-4.9-1.1-7.3-1.6c0.6,0.1,1.3,0.3,1.9,0.4
				c-6.9-2-13.5-4.5-19.7-8.3c-16.1-10.1-25.7-25-27.8-46.3c0.1,2.6,0.2,5.2,0.3,7.8c0-4.1,0-8.2,0-12.3c-0.1,2.7-0.2,5.4-0.3,8.1
				c0.3-4.2,0.7-8.4,1-12.6c-0.4,2.8-0.7,5.5-1.1,8.3c0.8-4.2,1.5-8.5,2.3-12.7c-0.6,2.8-1.3,5.6-1.9,8.4c1.1-4.2,2.3-8.5,3.4-12.7
				c-0.9,2.8-1.8,5.6-2.7,8.4c1.6-4.2,3.2-8.3,4.7-12.5c-1.2,2.8-2.4,5.6-3.6,8.3c2-4.1,3.9-8.1,5.9-12.2c-1.5,2.7-3,5.4-4.5,8.1
				c2.4-3.9,4.8-7.8,7.2-11.7c-1.8,2.6-3.6,5.2-5.4,7.8c2.8-3.7,5.6-7.5,8.4-11.2c-2.1,2.5-4.2,4.9-6.3,7.4c8-6.8,16-13.7,24-20.5
				c-2.5,1.5-5.1,2.9-7.6,4.4c4-2.1,8.1-4.2,12.1-6.3c-1.1,0.6-2.2,1.1-3.3,1.7c2.7-1.1,5.3-2.2,8-3.3c-1.2,0.4-2.3,0.9-3.5,1.3
				c2.8-0.9,5.5-1.8,8.3-2.7c-1.2,0.3-2.4,0.7-3.6,1c2.9-0.7,5.7-1.4,8.6-2c-1.2,0.2-2.5,0.4-3.7,0.6c2.9-0.5,5.9-0.9,8.8-1.4
				c-1.3,0.1-2.5,0.2-3.8,0.3c6.7-0.5,13.1-1,19.7-0.4c5.5,0.5,11.2,1.6,16.5,3.3c10.1,3.2,20,8.6,27.5,16.2
				c6.9,7,12.7,15.7,15.1,25.4c1,4,1.5,8,1.5,12.1c0.1,2.4-0.1,4.9-0.4,7.3c-0.5,3.3-1.4,6.6-2.5,9.7c-0.3,0.9,0,1.7,0.7,2.3
				c0.9,0.4,1.6,0.2,2.3-0.4c1.3-1.5,2.4-3.1,3.4-4.8c1.1-1.7,1.9-3.5,2.6-5.3c0.7-4,1.1-8,1.2-12c-0.1-2-0.3-4-0.4-5.9
				c-0.6-5.7-2.3-12-4.7-17.2c-2.8-5.9-6.4-11.5-10.8-16.4c-8.5-9.3-19.4-16.5-31.6-19.9c-5.3-1.5-10.7-2.7-16.2-3.2
				c-6.6-0.7-13.1-0.6-19.7,0.2c-10.7,1.3-20.8,5-30,10.8c-5.8,3.6-11,8.2-15.6,13.3c-2.2,2.5-4.2,5.1-5.9,8
				c-0.9,1.9-1.9,3.9-2.8,5.8c-1.7,3.7-3.5,7.4-4.5,11.4c-2.1,7.9-2.1,16.8-0.3,24.7c4.7,19.8,19.7,34.8,37.8,43.1
				c9.1,4.2,19.5,6.4,29.6,6.7c10.9,0.3,22.2-1.2,32.4-5.4c9.8-4,19.4-10.1,25.6-18.9c2.6-3.6,4.7-7.4,6.3-11.5
				c0.5-1.2,1-2.4,1.3-3.7c1-3.2,1.5-6.4,1.6-9.7c-0.1-0.9-0.5-1.4-1.3-1.7c-1.3-0.1-2.4,0.3-3.3,1.2c-1.8,1.2-3.5,2.5-5.1,4
				C164.5,103,163.8,104,163.6,105.2z"/>
			<path id="XMLID_32_" class="st1" d="M147.5,97c0,3.3-0.5,6.6-1.6,9.7c0.2-0.5,0.4-1,0.5-1.5c-0.8,1.9-1.5,3.8-2.3,5.7
				c0.2-0.5,0.4-1,0.6-1.5c-3.7,4.3-7.4,8.7-11.1,13c1.3-1.1,2.7-2.1,4-3.2c-1.8,1.3-3.7,2.7-5.5,4c-7.5,5.3-16,7.7-25.5,7.3
				c-6.8,2.9-13.7,3.8-20.6,2.7c-3.6-0.4-7.1-1-10.6-1.8c0.9,0.2,1.7,0.3,2.6,0.5c-2.6-0.7-5.3-1.4-7.9-2.1c0.9,0.3,1.7,0.5,2.6,0.8
				c-2.5-0.9-5.1-1.8-7.6-2.7c0.8,0.3,1.7,0.7,2.5,1c-2.4-1.1-4.9-2.2-7.3-3.3c0.8,0.4,1.6,0.8,2.5,1.2c-2.4-1.3-4.7-2.6-7.1-3.9
				c0.8,0.5,1.6,1,2.3,1.5c-2.2-1.5-4.4-3-6.6-4.4c0.7,0.6,1.5,1.1,2.2,1.7c-2-1.6-4.1-3.3-6.1-4.9c0.7,0.6,1.3,1.2,2,1.9
				c-1.9-1.8-3.8-3.6-5.6-5.4c0.6,0.7,1.2,1.4,1.8,2.1c-3.4-3.8-6.7-7.5-9.4-11.8c-2.1-3.4-4-7.1-5.2-10.9c-1-3.1-1.7-6.2-2.2-9.3
				c-0.7-4.9-0.3-9.6,0.2-14.5c-0.2,0.7-0.3,1.4-0.5,2.2c0.5-2.3,1.1-4.7,1.6-7c-0.2,0.7-0.4,1.3-0.6,2c0.7-2.3,1.5-4.6,2.2-6.8
				c-0.3,0.6-0.5,1.2-0.8,1.8c1-2.2,2-4.3,3-6.5c-0.3,0.6-0.6,1.1-0.9,1.7c1.2-2,2.3-4,3.5-6c-0.3,0.5-0.7,1-1,1.5
				c1.4-1.8,2.7-3.7,4.1-5.5c-0.3,0.4-0.7,0.9-1,1.3c1.5-1.7,3-3.4,4.5-5.1c-0.4,0.4-0.7,0.8-1.1,1.2c5.3-4.7,10.7-8.9,17.3-11.8
				c4.9-2.1,9.9-3.9,15.1-5c11.2-2.4,23.1-2.5,34.4-0.1c17.8,3.8,34,13.6,43.7,29.8c2.5,4.1,4.3,8.5,5.7,13.1
				c3.1,10.3,1.8,20-1.6,29.6c-0.5,1.3-1.3,3.7,0.1,4.7c1.3,0.9,2.9,0.6,3.5-0.9c1.8-4.6,3.3-9,3.9-13.9c0.5-3.6,0.6-7.5,0.2-11.2
				c-0.8-7.6-2.9-14.7-6.5-21.4c-6.5-12-17.3-22.2-29.6-28.2c-19.7-9.7-44-10.7-64.7-3.3C47,30.8,31.9,42.4,25.6,59.2
				c-2.2,5.7-3.7,11.9-3.7,18c0,4.9,0.5,9.9,1.8,14.6c0.7,2.8,1.6,5.6,2.8,8.3c1.2,2.6,2.5,5.2,4.1,7.6c2.5,4.1,5.6,7.8,8.9,11.2
				c8.1,8.2,18.9,13.9,29.8,17.1c10.8,3.2,22.4,4,33.6,2.5c11.2-1.6,22.4-5,31.9-11.4c4.4-3,8.6-6.6,11.7-10.9
				c2.1-2.9,3.9-6,5.1-9.3c0.5-1.4,1-2.9,1.4-4.3c0.9-3.2,1.4-6.4,1.6-9.8c0.2-1.6-1.7-2.5-3-1.9c-1,0.8-1.8,1.8-2.4,2.9
				C148.4,94.7,147.9,95.8,147.5,97z"/>
			<path id="XMLID_31_" class="st1" d="M149.9,103.1c0,3.4-0.5,6.7-1.6,10c0.2-0.6,0.4-1.3,0.6-1.9c-0.7,2.3-1.7,4.4-2.9,6.4
				c-1.1,2-2.4,3.9-3.9,5.7c0.9-1,1.8-1.9,2.7-2.9c-1.9,2.1-3.9,4.2-5.8,6.3c1-0.9,2-1.8,2.9-2.7c-2.1,1.9-4.3,3.8-6.4,5.7
				c1.1-0.8,2.1-1.6,3.2-2.5c-2.3,1.7-4.6,3.4-6.9,5.2c1.1-0.7,2.3-1.5,3.4-2.2c-2.5,1.5-4.9,3.1-7.4,4.6c1.2-0.6,2.4-1.3,3.6-1.9
				c-2.6,1.3-5.2,2.6-7.9,4c1.2-0.5,2.5-1.1,3.7-1.6c-2.7,1.1-5.5,2.2-8.2,3.4c1.3-0.4,2.6-0.8,3.8-1.3c-4.4,1.6-8.9,2.9-13.5,3.8
				c-3.4,0.7-6.8,1.1-10.2,1.3c-5.4,0.2-10.8-0.1-16.1-0.9c-11.7-1.8-23.2-6.3-32.6-13.5c-8.7-6.6-15.7-15.4-19.6-25.6
				c-1.7-4.5-2.7-9.3-3.2-14.1c-0.6-6.7,0.9-13.1,2.7-19.5c-0.3,0.8-0.7,1.7-1,2.5c1-2.4,2-4.8,3-7.1c-0.4,0.8-0.8,1.6-1.2,2.3
				c1.2-2.2,2.4-4.5,3.6-6.7c-0.4,0.7-0.9,1.5-1.3,2.2c1.4-2.1,2.8-4.1,4.2-6.2c-0.5,0.7-1,1.3-1.5,2c1.6-1.9,3.1-3.9,4.7-5.8
				c-0.5,0.6-1.1,1.2-1.6,1.8c1.7-1.7,3.4-3.5,5.1-5.2c-0.6,0.6-1.1,1.1-1.7,1.7c1.9-1.6,3.7-3.2,5.6-4.8c-0.6,0.5-1.2,1-1.8,1.5
				c2-1.4,3.9-2.8,5.9-4.2c-0.6,0.4-1.2,0.9-1.9,1.3c2.1-1.3,4.2-2.5,6.2-3.8c-0.6,0.4-1.3,0.8-1.9,1.2c2.1-1.1,4.3-2.2,6.4-3.3
				c-0.7,0.3-1.3,0.7-2,1c2.2-0.9,4.5-1.9,6.7-2.8c-0.7,0.3-1.4,0.6-2,0.8c2.3-0.8,4.6-1.5,6.9-2.3c-0.7,0.2-1.4,0.5-2.1,0.7
				c2.4-0.6,4.8-1.2,7.1-1.9c-0.7,0.2-1.4,0.4-2.1,0.5c2.4-0.5,4.8-0.9,7.2-1.4c-0.7,0.1-1.4,0.3-2.2,0.4c2.5-0.3,4.9-0.6,7.4-0.9
				c-0.7,0.1-1.5,0.2-2.2,0.2c2.5-0.1,5-0.3,7.4-0.4c-0.7,0-1.5,0.1-2.2,0.1c2.5,0,5.1,0.1,7.6,0.1c-0.7,0-1.5,0-2.2-0.1
				c2.5,0.2,5,0.4,7.4,0.5c-0.7-0.1-1.5-0.1-2.2-0.2c2.6,0.4,5.1,0.7,7.7,1.1c-0.8-0.1-1.5-0.3-2.3-0.4c2.6,0.5,5.2,1.1,7.7,1.6
				c-0.7-0.2-1.5-0.4-2.2-0.5c2.5,0.7,5.1,1.4,7.6,2.2c-0.7-0.2-1.5-0.5-2.2-0.7c2.4,0.9,4.9,1.8,7.3,2.7c-0.7-0.3-1.5-0.6-2.2-0.9
				c2.3,1.1,4.7,2.1,7,3.2c-0.7-0.3-1.5-0.7-2.2-1c2.3,1.2,4.5,2.5,6.8,3.7c-0.7-0.4-1.4-0.8-2.1-1.2c2.2,1.4,4.3,2.8,6.5,4.2
				c-0.7-0.4-1.4-0.9-2.1-1.3c2,1.5,4,3,6,4.5c-0.7-0.5-1.3-1-2-1.5c14.4,12.9,21.8,25,20,49.3c0.4-3.1,0.9-6.2,1.3-9.3
				c-0.8,4.6-1.6,9.2-2.4,13.8c-0.1,1.1-0.3,2.2-0.4,3.4c0.1,0.6,0.2,1.2,0.3,1.8c0.8,1.2,1.8,0.7,2.6-0.2c1.3-1.7,1.8-4.2,2.3-6.2
				c0.9-3.3,2.1-7,2-10.4c0.2-3.4-0.1-6.8-1.1-10.1c-0.4-2.3-0.8-4.6-1.4-6.9c-0.8-3.5-2.3-6.8-4-10c-3.7-7-8.9-13.5-15-18.6
				c-14.1-11.7-32.5-18.3-50.9-18.1C74.7,26.7,57,31.6,43,42.6c-7.6,5.9-13.5,13.1-17.7,21.7c-4.3,8.9-6,19-5.1,28.9
				c0.5,4.9,1.3,9.8,3.2,14.4c0.7,1.8,1.4,3.7,2.2,5.5c1.9,4.1,4.5,8,7.2,11.6c2.9,4,6.8,7.7,10.7,10.8c4.1,3.3,8.3,6.2,13,8.5
				c4.9,2.5,10,4.2,15.4,5.5c5.3,1.3,10.8,2.4,16.3,2.6c10.6,0.5,21.6-0.5,31.6-4.3c9.1-3.4,17.9-8.4,24.9-15.2
				c5.7-5.6,10.5-11.9,13.9-19.2c1.8-3.8,3.3-7.8,4.5-11.9c1.4-4.8,2-9.8,2.3-14.8c0-1.1-0.6-1.5-1.6-1.3c-1.8,0.8-3.3,2.1-4.4,3.8
				c-2.4,2.8-4.7,5.6-6.8,8.6C151.1,99.4,150.2,101.1,149.9,103.1z"/>
			<path id="XMLID_30_" class="st1" d="M155.3,112.5c0,2.6-0.3,5.1-1.1,7.6c-0.5,2.4-1.3,4.6-2.5,6.8c0.3-0.5,0.5-1,0.8-1.4
				c-2,3.5-4,6.5-6.8,9.4c-2.7,2.9-5.9,5.4-9.3,7.4c-7.1,4.3-15.4,7.1-23.7,8.2c-8.2,1.1-16.4,1-24.5-0.5c-4.8-0.9-9.5-2.1-14-3.8
				c-5.3-2-10.1-4.8-14.9-7.9c0.4,0.3,0.8,0.6,1.2,0.9c-1.9-1.4-3.8-2.8-5.7-4.3c0.4,0.3,0.7,0.6,1.1,1c-1.7-1.5-3.3-3-5-4.5
				c0.3,0.3,0.7,0.7,1,1c-1.5-1.6-3.1-3.2-4.6-4.8c0.3,0.3,0.6,0.7,1,1c-3.2-4-6.2-8-8.6-12.6c-1.5-2.9-2.7-6-3.6-9.1
				c-6.5-19.7,0.6-33.8,21.2-42.3c6.1-12.4,15-19.6,26.7-21.5c11.9-2.4,23.5,0.4,34.6,8.3c14.1-0.9,25.2,3.2,33.3,12.4
				c2.8,3.1,5.3,6.5,7.6,10c-0.6-0.8-1.2-1.7-1.7-2.5c1.3,2.3,2.6,4.5,3.9,6.8c-0.5-0.9-1-1.8-1.5-2.7c1.1,2.4,2.2,4.7,3.3,7.1
				c-0.4-1-0.9-1.9-1.3-2.9c0.9,2.4,1.7,4.9,2.6,7.3c-0.3-1-0.7-2-1-3c0.6,2.5,1.3,5,1.9,7.6c-0.2-1-0.5-2.1-0.7-3.1
				c0.4,2.6,0.8,5.1,1.2,7.7c-0.1-1.1-0.3-2.1-0.4-3.2c0.1,2.6,0.3,5.2,0.4,7.8c0-1.1-0.1-2.1-0.1-3.2c-0.1,2.6-0.3,5.2-0.4,7.8
				c0.1-1.1,0.2-2.1,0.2-3.2c-0.4,2.6-0.8,5.2-1.2,7.8c0.2-1,0.4-2.1,0.6-3.1c-0.7,2.6-1.3,5.2-2,7.7c-0.3,1.1,0,1.9,0.8,2.5
				c1,0.2,1.8-0.2,2.4-1.1c1.3-2.1,2.5-4.4,3.4-6.7c1.1-2.3,1.9-4.7,2.6-7.1c0-5.7-0.2-11-1.6-16.5c-1.3-5-3.3-10.1-6-14.6
				c-4.9-8-11.3-14.9-19-20.2c-13.2-9.1-29.2-14-45.3-13.9c-13.4,0.1-26.6,2.7-38.7,8.5c-8.7,4.2-17,10.4-22.6,18.4
				c-3.1,4.5-5.4,9.2-7.2,14.4c-1.9,5.4-2.6,11.6-2.4,17.3c0.3,7.8,2.3,15.4,5.7,22.5c2.9,5.8,6.5,10.9,10.8,15.7
				c2.9,3.2,6.2,6,9.6,8.7c4.8,3.7,10.7,7,16.4,9.2c10.9,4.3,22.7,6.5,34.4,6c11.6-0.5,22.6-3.3,32.9-8.6
				c8.8-4.5,16.1-11.5,21.6-19.7c2.3-3.5,4.5-7.3,5.9-11.3c0.6-1.7,1.2-3.4,1.7-5.1c1-3.2,1.5-6.6,1.6-9.9c0.4-3.6-4.9-0.2-5.6,0.2
				c-2.4,1.7-4.7,3.4-6.9,5.3C156.8,109.7,155.8,110.9,155.3,112.5z"/>
			<path id="XMLID_29_" class="st1" d="M159.6,98.2c0.1,2.4-0.1,4.7-0.7,7c-0.3,2.3-1.1,4.5-2.4,6.5c0.2-0.4,0.5-0.8,0.7-1.2
				c-1,1.7-2.1,3.4-3.1,5.1c0.3-0.4,0.5-0.8,0.8-1.2C128.7,149.2,92.4,130,46.1,56.9c-0.9,2.6-1.8,5.2-2.7,7.8c1.7-4,3.3-8,5-11.9
				c-1.2,2.5-2.4,5-3.6,7.5c2.1-3.8,4.2-7.6,6.3-11.4c-1.5,2.3-2.9,4.7-4.4,7c2.5-3.5,5-7.1,7.4-10.6c-1.7,2.2-3.5,4.3-5.2,6.5
				c2.8-3.3,5.7-6.5,8.5-9.8c-0.8,0.8-1.5,1.7-2.3,2.5c2-1.9,3.9-3.7,5.9-5.6c-0.9,0.7-1.7,1.5-2.6,2.2c2.2-1.7,4.3-3.3,6.5-5
				c-0.9,0.6-1.8,1.3-2.8,1.9c2.3-1.5,4.6-3,6.9-4.4c-1,0.5-2,1.1-2.9,1.6c5.5-2.9,10.7-5.6,16.7-7.4c4.2-1.3,8.4-2.2,12.7-2.7
				c10.1-1.4,20.6-0.7,30.4,2c9.2,2.5,17.7,6.5,25.3,12.2c4.1,3.1,8.1,7.2,11.2,11.3c3.1,4.2,5.5,8.5,7.7,13.3
				c-0.2-0.5-0.4-1.1-0.6-1.6c0.7,2.1,1.5,4.2,2.2,6.3c-0.2-0.5-0.3-1-0.5-1.6c0.6,2.1,1.1,4.3,1.7,6.4c-0.1-0.5-0.2-1-0.4-1.6
				c0.7,3.2,1,6.5,1.1,9.8c0,6.6-1.3,13.1-4,19.3c-0.5,1.5,0.2,3.2,2,3.1c1.9,0,3-3.2,3.4-4.7c1.3-3.4,2.2-6.9,2.8-10.5
				c0.4-2.7,0.6-5.4,0.6-8.1c0-3-0.2-5.9-0.7-8.9c-1.6-9.5-5.4-18.8-11.3-26.5c-3.7-4.8-7.9-9.2-12.6-12.9
				c-5.1-4.1-10.8-7.3-16.8-9.9c-6.2-2.7-12.6-4.4-19.3-5.5c-6.4-1.1-13.3-1.6-19.8-1c-14.7,1.3-29.5,6.6-40.8,16.3
				c-4.9,4.2-9.4,9-12.8,14.6c-2.5,4.3-4.6,8.7-6.1,13.4c-1.9,5.9-2.5,12.1-2.2,18.3c0.5,11.9,5,23.9,12.8,33
				c4.1,4.9,8.6,9.1,13.7,12.8c4.8,3.5,10.1,6.1,15.5,8.6c4.8,2.2,10.2,3.3,15.3,4.3c5.7,1.1,11.3,1.2,17,1.1
				c10.4-0.2,20.9-2.5,30.4-7c6.3-3,12.3-7.2,16.8-12.6c1.3-1.6,2.5-3.2,3.6-4.9c1.7-2.8,3.1-5.7,4.1-8.8c0.9-3,1.3-6.1,1.3-9.2
				c0.1-1.4-1-2.8-2.6-2.5c-1,0.5-1.9,1.2-2.7,2.1C160.8,96.3,160.1,97.2,159.6,98.2z"/>
			<path id="XMLID_28_" class="st1" d="M151.1,109.2c0.1,2.6-0.3,5.1-1,7.6c-0.5,2.4-1.3,4.6-2.5,6.7c0.3-0.6,0.6-1.2,0.9-1.8
				c-1.4,2.8-3.1,5.3-5.1,7.7c-2,2.4-4.2,4.5-6.6,6.4c-3.7,2.9-7.9,5.2-12.3,7.2c-11.9,5.3-25.6,6.6-38.5,4.8
				c-13-1.9-25.5-6.6-35.7-15c-4.7-3.9-8.9-8.3-12.3-13.4c-3.8-5.7-6.1-11.7-7.9-18.2c0.1,0.7,0.3,1.3,0.4,2
				c-0.4-2.3-0.8-4.5-1.2-6.8c0.1,0.6,0.2,1.3,0.2,1.9c-0.2-2.3-0.4-4.6-0.6-6.8c0,0.6,0.1,1.3,0.1,1.9c0-2.2,0.1-4.5,0.1-6.7
				c0,0.6,0,1.2,0,1.9c0.1-2.5,0.5-4.9,1.1-7.3c9.2-44.7,52.3-35.8,129.3,26.7c-0.2,1.2-0.4,2.3-0.7,3.5c0.1,0.6,0.2,1.2,0.2,1.9
				c0.8,1.3,1.8,0.8,2.6-0.1c1.4-1.7,2-4.4,2.7-6.5c0.6-1.6,1-3.2,1.4-4.9c0.6-2,1-4,1.3-6c-0.3-5.1-0.9-10-2.3-14.9
				c-1.3-4.7-3.5-9.1-5.9-13.2c-5.8-9.8-14.4-17.5-24-23.2c-12.1-7.2-26.7-10.7-40.8-10.5C80.4,34,66.6,37.2,54.4,43.9
				c-9.5,5.3-17.2,12.5-23,21.6c-8.8,14-9.6,32.6-3.6,47.8c4.3,11,11.5,20.5,20.9,27.8c2.4,2,4.9,3.7,7.6,5.4c2.9,1.6,5.9,3.1,9,4.3
				c5.3,2.3,10.8,4.2,16.5,5.1c6.7,1.1,13.3,1.8,20.1,1.5c3.6-0.1,6.8-0.4,10.3-1.1c3.2-0.6,6.4-1.3,9.5-2.3c3-1,5.9-2.2,8.8-3.6
				c11-5,20.2-13,26.9-23c3.1-4.7,5.3-9.6,7.3-14.9c1-2.5,1.8-5,2.3-7.6c0.8-3.2,1.3-6.5,1.3-9.9c0.3-4.3-6.2,1.7-6.3,1.7
				c-2.7,2.4-5.3,5-7.8,7.7C152.8,105.8,151.7,107.4,151.1,109.2z"/>
			<path id="XMLID_27_" class="st1" d="M155.5,95.7c-0.1,3.5-0.7,6.8-1.8,10.1c0.1-0.3,0.2-0.6,0.3-0.9c-1.1,3.4-3.1,6.3-5.8,8.7
				c-10.1,13.7-25.5,19.3-46,17c-1.6-0.1-3.1-0.1-4.7-0.2c-29.7-2.4-49.4-23.6-59.1-63.6c-0.2,2.3-0.4,4.6-0.7,7
				c0.6-3.9,1.1-7.7,1.7-11.6c-0.5,2.3-1,4.5-1.4,6.8c1-3.8,1.9-7.6,2.9-11.4c-0.3,0.9-0.5,1.8-0.8,2.8c0.9-2.4,1.8-4.8,2.7-7.2
				c-0.3,0.9-0.7,1.7-1,2.6c1.1-2.3,2.3-4.5,3.4-6.8c-0.4,0.8-0.9,1.6-1.3,2.4c1.4-2.1,2.8-4.2,4.1-6.3c-0.5,0.7-1,1.5-1.6,2.2
				c1.6-2,3.1-3.9,4.7-5.9c-0.6,0.7-1.2,1.3-1.8,2c1.8-1.8,3.6-3.6,5.3-5.4c-0.6,0.6-1.3,1.2-1.9,1.7c1.9-1.6,3.8-3.2,5.7-4.8
				c-0.7,0.5-1.4,1-2.1,1.5c3.3-2.5,6.8-4.7,10.5-6.7c3.1-1.5,6.2-2.9,9.4-4c6.7-2.3,13.8-3.6,20.9-3.9c7.5-0.4,15,0.4,22.3,2.1
				c3.8,0.9,7.6,2.1,11.3,3.5c3.6,1.4,7.1,3.2,10.4,5.2c-0.3-0.2-0.7-0.4-1-0.6c1.9,1.3,3.8,2.6,5.7,3.9c-0.3-0.2-0.6-0.4-0.9-0.7
				c4.2,3.3,8.3,6.7,11.8,10.8c2.7,3.2,5,6.6,7,10.3c3.9,7.4,6.4,15.4,6,24.1c-0.1,1.6-0.3,3.1-0.4,4.7c-0.6,4.8-2,9.4-4,13.8
				c-0.6,1.5-0.2,2.5,1.3,3.1c1.6,0.6,2.4-0.1,3-1.6c1.3-3.2,2.5-6.4,3.4-9.7c1.2-4.9,1.6-10.1,1.2-15.1c-0.6-8.1-3.1-15.9-7-23
				c-8.9-16-24.7-27.6-41.9-33c-13.3-4.2-27.7-5.3-41.4-2.5c-12.2,2.5-24.1,7.6-33.3,16.1C46,37.2,41.9,41.7,39,47
				c-2.7,5.1-4.9,10.5-5.9,16.2c-1.8,10.7-0.7,21.5,3.6,31.5c6.3,14.5,18.6,25.5,32.4,32.5c11.6,5.9,25.2,8.2,38.1,7.9
				c9.6-0.2,19.5-2.3,28.3-6.2c6.6-3,12.5-7.2,17.1-12.7c2.2-2.6,3.9-5.3,5.3-8.4c2-4.4,2.7-8.9,3.3-13.6c0.2-1.2-1.7-2.5-2.8-2.3
				C157.2,92.2,155.6,94.4,155.5,95.7z"/>
			<path id="XMLID_26_" class="st1" d="M145.8,99.7c0.1,2.6-0.3,5.1-1,7.5c-0.5,2.3-1.2,4.5-2.3,6.6c0.3-0.6,0.6-1.3,1-1.9
				c-1.1,1.9-2.2,3.9-3.3,5.8c0.4-0.6,0.7-1.3,1.1-1.9c-13.5,18.6-28.9,20.6-46.9,22.2c0.9-0.1,1.8-0.1,2.7-0.2
				c-2.6,0-5.3,0.1-7.9,0.1c0.9,0,1.8,0,2.7,0.1c-2.7-0.2-5.3-0.4-8-0.5c0.9,0.1,1.8,0.2,2.8,0.3c-2.7-0.4-5.4-0.8-8.2-1.1
				c0.9,0.2,1.8,0.4,2.7,0.6c-2.7-0.6-5.5-1.2-8.2-1.8c0.9,0.3,1.8,0.5,2.7,0.8c-4.5-1.1-8.9-2.6-13.1-4.4c-3.3-1.4-6.5-3.1-9.5-5
				c-5.9-3.7-11.1-8.3-15.4-13.7c-4.2-5.2-7.4-11-9.5-17.4c-1.1-3.1-1.8-6.3-2.1-9.5c-0.4-3.3-0.5-6.6-0.1-9.8
				c-0.1,0.6-0.1,1.2-0.2,1.8c0.3-2.3,0.6-4.5,0.9-6.8c-0.1,0.6-0.2,1.1-0.4,1.7c0.6-2.2,1.1-4.4,1.7-6.6c-0.1,0.5-0.3,1-0.4,1.6
				c0.7-2.2,1.5-4.3,2.2-6.5c-0.2,0.5-0.4,0.9-0.5,1.4c1.4-3.2,3.1-6.3,5.1-9.2c14-18.8,35.4-26.9,64.1-24.4
				c15.7,1.4,31,8.4,42.3,19.4c9.4,9.1,16,21.6,16.6,35.1c0.2,5.6-0.8,10.9-2.5,16.3c-0.5,1.5-1.6,5-0.1,6.3
				c0.6,0.4,1.3,0.6,2.1,0.4c0.8-0.3,1.3-0.9,1.5-1.9c1.7-4.6,3-9,3.6-13.8c0.5-4.5,0.3-9.5-0.6-14c-1-5-2.7-9.6-4.8-14.3
				c-3.7-8-9.7-15.2-16.4-20.8c-5.2-4.3-10.7-8-16.9-10.7c-2.9-1.3-5.7-2.3-8.7-3.3c-5.6-1.8-11.3-2.8-17.1-3.3
				c-10.9-1-22.2-0.2-32.7,3.2C47.8,33,32.3,43.6,24.9,59.8c-1.3,2.9-2.4,5.5-3.2,8.6c-0.9,2.9-1.5,5.9-1.9,8.9c-0.3,3-0.3,6-0.1,9
				c0.5,10.9,4.7,21.4,11.1,30.2c6.6,8.9,15.5,16.3,25.7,20.7c10.7,4.7,21.7,7,33.4,7.1c16.6,0.1,34-5.6,46.7-16.4
				c3.6-3,6.7-6.4,9.4-10.2c2.1-3.1,4-6.5,5.3-10.1c0.4-1.5,0.9-3,1.3-4.5c0.9-3.3,1.4-6.6,1.5-10c0.2-1.9-1.3-2.9-3-1.9
				c-1.2,1.2-2.3,2.5-3.1,4C147.1,96.6,146.4,98.1,145.8,99.7z"/>
		</g>
	</g>
</g>
<text id="XMLID_2_" transform="matrix(0.9348 0 0 1 46.345 111.7495)" class="st2 st3 st4">SoN</text>
</svg>
